# xmcd
#
# Track frame offsets:
#	150
#	13308
#	31017
#	45516
#	64214
#	76272
#	94091
#	105348
#	123342
#	136617
#	146912
#	158501
#
# Disc length: 2342 seconds
# Revision: 2
# Processed by: cddbd v1.5.2PL0 Copyright (c) Steve Scherf et al.
# Submitted via: dBpowerAMP V12.0
#
DISCID=8e09240c
DTITLE=Rachel Barge and Blue Dawning - Rachel Barge and Blue Dawning
DYEAR=2014
DGENRE=Country
TTITLE0=Sisters of the Mountains
TTITLE1=April Snow
TTITLE2=My Cold Heart
TTITLE3=I've Kissed You My Last Time
TTITLE4=Rebels Ye Rest
TTITLE5=Kentucky Mandolin
TTITLE6=Living in the Light
TTITLE7=Please Stay Away
TTITLE8=Home Place in the Mountains
TTITLE9=Barefootin'
TTITLE10=I've Seen Enough of What's Behind Me
TTITLE11=Road Apples
EXTD=
EXTT0=
EXTT1=
EXTT2=
EXTT3=
EXTT4=
EXTT5=
EXTT6=
EXTT7=
EXTT8=
EXTT9=
EXTT10=
EXTT11=
PLAYORDER=
